<svg width="23" height="25" viewBox="0 0 23 25" fill="none" xmlns="http://www.w3.org/2000/svg">
<path fill-rule="evenodd" clip-rule="evenodd" d="M21.4494 7.23646L20.7233 5.97635C20.1089 4.91011 18.7475 4.54228 17.6798 5.15408C17.1716 5.45348 16.5651 5.53842 15.9942 5.39018C15.4232 5.24194 14.9347 4.87268 14.6363 4.36384C14.4444 4.04042 14.3412 3.67204 14.3373 3.29596C14.3546 2.693 14.1272 2.10871 13.7067 1.67619C13.2863 1.24367 12.7086 0.999752 12.1054 1H10.6424C10.0515 1 9.48487 1.23548 9.06801 1.65435C8.65114 2.07322 8.41838 2.64094 8.42122 3.23188C8.4037 4.45199 7.40957 5.43186 6.18934 5.43173C5.81325 5.42783 5.44487 5.32468 5.12145 5.13272C4.05375 4.52093 2.69231 4.88876 2.07797 5.955L1.29841 7.23646C0.68482 8.30137 1.04764 9.66195 2.11001 10.2799C2.80056 10.6786 3.22596 11.4154 3.22596 12.2128C3.22596 13.0102 2.80056 13.747 2.11001 14.1457C1.04899 14.7595 0.685773 16.1168 1.29841 17.1785L2.03525 18.4493C2.3231 18.9687 2.80604 19.3519 3.37723 19.5143C3.94842 19.6766 4.56075 19.6046 5.07873 19.3143C5.58793 19.0171 6.19473 18.9357 6.76424 19.0881C7.33375 19.2405 7.81878 19.6141 8.11153 20.1259C8.30349 20.4493 8.40663 20.8177 8.41054 21.1937C8.41054 22.4264 9.40979 23.4256 10.6424 23.4256H12.1054C13.3339 23.4256 14.3314 22.4329 14.3373 21.2044C14.3345 20.6116 14.5687 20.0423 14.9879 19.6231C15.407 19.2039 15.9764 18.9697 16.5692 18.9725C16.9444 18.9826 17.3112 19.0853 17.6371 19.2715C18.702 19.8851 20.0626 19.5223 20.6806 18.46L21.4494 17.1785C21.7471 16.6677 21.8287 16.0593 21.6764 15.488C21.5241 14.9168 21.1503 14.4298 20.6378 14.135C20.1254 13.8402 19.7516 13.3533 19.5993 12.782C19.447 12.2108 19.5286 11.6024 19.8263 11.0915C20.0198 10.7536 20.2999 10.4735 20.6378 10.2799C21.6938 9.66229 22.0558 8.30965 21.4494 7.24714V7.23646Z" stroke="white" stroke-width="1.5" stroke-linecap="round" stroke-linejoin="round"/>
<path d="M11.3792 15.2883C13.0778 15.2883 14.4547 13.9114 14.4547 12.2128C14.4547 10.5143 13.0778 9.1373 11.3792 9.1373C9.68067 9.1373 8.30371 10.5143 8.30371 12.2128C8.30371 13.9114 9.68067 15.2883 11.3792 15.2883Z" stroke="white" stroke-width="1.5" stroke-linecap="round" stroke-linejoin="round"/>
</svg>
