<svg width="28" height="37" viewBox="0 0 28 37" fill="none" xmlns="http://www.w3.org/2000/svg">
<path d="M10.6834 24.2333V20.6554C10.6834 19.7454 11.4253 19.006 12.3445 18.9999H15.7116C16.6352 18.9999 17.3839 19.7411 17.3839 20.6554V24.2444C17.3837 25.0171 18.0066 25.6486 18.7869 25.6667H21.0316C23.2693 25.6667 25.0833 23.8708 25.0833 21.6555V11.4775C25.0714 10.606 24.658 9.78757 23.961 9.2552L16.284 3.13285C14.9391 2.06682 13.0272 2.06682 11.6823 3.13285L4.03902 9.26631C3.33929 9.79652 2.92527 10.6163 2.91666 11.4886V21.6555C2.91666 23.8708 4.73068 25.6667 6.96839 25.6667H9.21311C10.0127 25.6667 10.661 25.0249 10.661 24.2333" stroke="white" stroke-width="1.5" stroke-linecap="round" stroke-linejoin="round"/>
<path d="M8.516 31.8H9.296V36H8.516V31.8ZM6.344 36H5.564V31.8H6.344V36ZM8.576 34.2H6.278V33.534H8.576V34.2ZM11.7894 36.042C11.4614 36.042 11.1694 35.972 10.9134 35.832C10.6574 35.688 10.4554 35.492 10.3074 35.244C10.1594 34.996 10.0854 34.714 10.0854 34.398C10.0854 34.078 10.1594 33.796 10.3074 33.552C10.4554 33.304 10.6574 33.11 10.9134 32.97C11.1694 32.83 11.4614 32.76 11.7894 32.76C12.1214 32.76 12.4154 32.83 12.6714 32.97C12.9314 33.11 13.1334 33.302 13.2774 33.546C13.4254 33.79 13.4994 34.074 13.4994 34.398C13.4994 34.714 13.4254 34.996 13.2774 35.244C13.1334 35.492 12.9314 35.688 12.6714 35.832C12.4154 35.972 12.1214 36.042 11.7894 36.042ZM11.7894 35.4C11.9734 35.4 12.1374 35.36 12.2814 35.28C12.4254 35.2 12.5374 35.084 12.6174 34.932C12.7014 34.78 12.7434 34.602 12.7434 34.398C12.7434 34.19 12.7014 34.012 12.6174 33.864C12.5374 33.712 12.4254 33.596 12.2814 33.516C12.1374 33.436 11.9754 33.396 11.7954 33.396C11.6114 33.396 11.4474 33.436 11.3034 33.516C11.1634 33.596 11.0514 33.712 10.9674 33.864C10.8834 34.012 10.8414 34.19 10.8414 34.398C10.8414 34.602 10.8834 34.78 10.9674 34.932C11.0514 35.084 11.1634 35.2 11.3034 35.28C11.4474 35.36 11.6094 35.4 11.7894 35.4ZM18.2606 32.76C18.5166 32.76 18.7426 32.81 18.9386 32.91C19.1386 33.01 19.2946 33.164 19.4066 33.372C19.5186 33.576 19.5746 33.84 19.5746 34.164V36H18.8246V34.26C18.8246 33.976 18.7626 33.764 18.6386 33.624C18.5146 33.484 18.3366 33.414 18.1046 33.414C17.9406 33.414 17.7946 33.45 17.6666 33.522C17.5426 33.594 17.4446 33.7 17.3726 33.84C17.3046 33.98 17.2706 34.158 17.2706 34.374V36H16.5206V34.26C16.5206 33.976 16.4586 33.764 16.3346 33.624C16.2106 33.484 16.0326 33.414 15.8006 33.414C15.6366 33.414 15.4906 33.45 15.3626 33.522C15.2386 33.594 15.1406 33.7 15.0686 33.84C15.0006 33.98 14.9666 34.158 14.9666 34.374V36H14.2166V32.796H14.9306V33.648L14.8046 33.396C14.9126 33.188 15.0686 33.03 15.2726 32.922C15.4806 32.814 15.7166 32.76 15.9806 32.76C16.2806 32.76 16.5406 32.834 16.7606 32.982C16.9846 33.13 17.1326 33.354 17.2046 33.654L16.9106 33.552C17.0146 33.312 17.1866 33.12 17.4266 32.976C17.6666 32.832 17.9446 32.76 18.2606 32.76ZM22.0449 36.042C21.6889 36.042 21.3769 35.972 21.1089 35.832C20.8449 35.688 20.6389 35.492 20.4909 35.244C20.3469 34.996 20.2749 34.714 20.2749 34.398C20.2749 34.078 20.3449 33.796 20.4849 33.552C20.6289 33.304 20.8249 33.11 21.0729 32.97C21.3249 32.83 21.6109 32.76 21.9309 32.76C22.2429 32.76 22.5209 32.828 22.7649 32.964C23.0089 33.1 23.2009 33.292 23.3409 33.54C23.4809 33.788 23.5509 34.08 23.5509 34.416C23.5509 34.448 23.5489 34.484 23.5449 34.524C23.5449 34.564 23.5429 34.602 23.5389 34.638H20.8689V34.14H23.1429L22.8489 34.296C22.8529 34.112 22.8149 33.95 22.7349 33.81C22.6549 33.67 22.5449 33.56 22.4049 33.48C22.2689 33.4 22.1109 33.36 21.9309 33.36C21.7469 33.36 21.5849 33.4 21.4449 33.48C21.3089 33.56 21.2009 33.672 21.1209 33.816C21.0449 33.956 21.0069 34.122 21.0069 34.314V34.434C21.0069 34.626 21.0509 34.796 21.1389 34.944C21.2269 35.092 21.3509 35.206 21.5109 35.286C21.6709 35.366 21.8549 35.406 22.0629 35.406C22.2429 35.406 22.4049 35.378 22.5489 35.322C22.6929 35.266 22.8209 35.178 22.9329 35.058L23.3349 35.52C23.1909 35.688 23.0089 35.818 22.7889 35.91C22.5729 35.998 22.3249 36.042 22.0449 36.042Z" fill="white"/>
</svg>
