<svg width="28" height="28" viewBox="0 0 28 28" fill="none" xmlns="http://www.w3.org/2000/svg">
<path fill-rule="evenodd" clip-rule="evenodd" d="M19.266 25.0833H9.52688C5.94946 25.0833 3.20499 23.7912 3.98455 18.5906L4.89225 11.5425C5.3728 8.94757 7.02803 7.95444 8.48035 7.95444H20.3553C21.8289 7.95444 23.3881 9.02232 23.9434 11.5425L24.8511 18.5906C25.5131 23.2039 22.8434 25.0833 19.266 25.0833Z" stroke="white" stroke-width="1.5" stroke-linecap="round" stroke-linejoin="round"/>
<path d="M19.4262 7.69814C19.4262 4.91439 17.1695 2.65767 14.3858 2.65767C13.0453 2.65203 11.7577 3.18057 10.8078 4.12645C9.85794 5.07233 9.32397 6.35763 9.32397 7.69814" stroke="white" stroke-width="1.5" stroke-linecap="round" stroke-linejoin="round"/>
<path d="M17.8457 12.9521H17.7923" stroke="white" stroke-width="1.5" stroke-linecap="round" stroke-linejoin="round"/>
<path d="M11.0433 12.9521H10.9899" stroke="white" stroke-width="1.5" stroke-linecap="round" stroke-linejoin="round"/>
</svg>
