<svg width="36" height="36" viewBox="0 0 36 36" fill="none" xmlns="http://www.w3.org/2000/svg">
<path d="M15.4953 24.8893H6.04419" stroke="#49906E" stroke-width="1.5" stroke-linecap="round" stroke-linejoin="round"/>
<path d="M19.7107 10.3506H29.1618" stroke="#49906E" stroke-width="1.5" stroke-linecap="round" stroke-linejoin="round"/>
<path fill-rule="evenodd" clip-rule="evenodd" d="M13.0894 10.2694C13.0894 8.3259 11.5022 6.75 9.54472 6.75C7.58724 6.75 6 8.3259 6 10.2694C6 12.2129 7.58724 13.7888 9.54472 13.7888C11.5022 13.7888 13.0894 12.2129 13.0894 10.2694Z" stroke="#49906E" stroke-width="1.5" stroke-linecap="round" stroke-linejoin="round"/>
<path fill-rule="evenodd" clip-rule="evenodd" d="M30.0001 24.8306C30.0001 22.8871 28.4141 21.3112 26.4566 21.3112C24.4979 21.3112 22.9106 22.8871 22.9106 24.8306C22.9106 26.7741 24.4979 28.35 26.4566 28.35C28.4141 28.35 30.0001 26.7741 30.0001 24.8306Z" stroke="#49906E" stroke-width="1.5" stroke-linecap="round" stroke-linejoin="round"/>
</svg>
